<svg preserveAspectRatio="xMidYMid meet"  width="251.567" height="251.526" viewBox="0 0 251.567 251.526" fill="none" xmlns="http://www.w3.org/2000/svg">
<g id="Group">
<path id="Vector" d="M203.87 2.66343C202.164 0.958037 199.851 0 197.438 0C195.026 0 192.713 0.958037 191.007 2.66343L181.364 12.3061L203.87 47.6928L239.257 70.1984L248.899 60.5557C249.745 59.7109 250.416 58.7076 250.874 57.6033C251.332 56.4989 251.567 55.3152 251.567 54.1197C251.567 52.9243 251.332 51.7405 250.874 50.6362C250.416 49.5318 249.745 48.5286 248.899 47.6837L203.87 2.66343ZM27 166.67L67.9813 188.412L84.8923 224.563L79.98 229.475C78.9789 230.476 77.7579 231.23 76.4141 231.676L18.9038 250.825C16.5001 251.627 13.9206 251.744 11.4543 251.162C8.98802 250.58 6.73241 249.324 4.94019 247.532L3.99411 246.586C2.20282 244.794 0.945945 242.538 0.364321 240.072C-0.217303 237.606 -0.100702 235.026 0.701058 232.623L19.8863 175.13C20.3325 173.794 21.083 172.58 22.0786 171.583L27 166.67Z" fill="#00D26A"/>
<path id="Vector_2" d="M239.268 70.1806L181.376 12.2883L174.944 18.7289L200.57 51.241L232.836 76.6212L239.268 70.1806ZM226.405 83.0526L200.57 51.241L168.513 25.1603L39.865 153.808L64.3628 185.574L97.7483 211.7L226.405 83.0526ZM91.3168 218.132L64.3628 185.574L33.4427 160.239L27.0112 166.671L84.9035 224.563L91.3168 218.132Z" fill="#C3EF3C"/>
<path id="Vector_3" d="M232.846 76.6215L174.944 18.7292L168.513 25.1606L226.405 83.0529L232.846 76.6215ZM145.98 131.275C121.118 156.146 95.1922 170.546 88.0876 163.442C80.983 156.337 95.3833 130.42 120.254 105.549C145.125 80.6787 171.042 66.2784 178.146 73.383C185.251 80.4876 170.851 106.405 145.98 131.275ZM39.8652 153.808L97.7575 211.701L91.3261 218.132L33.4338 160.24L39.8652 153.808Z" fill="#321B41"/>
</g>
</svg>
