<svg preserveAspectRatio="xMidYMid meet"  width="251.567" height="251.526" viewBox="0 0 251.567 251.526" fill="none" xmlns="http://www.w3.org/2000/svg">
<g id="Group">
<path id="Vector" d="M203.87 2.66343C202.164 0.958037 199.851 0 197.438 0C195.026 0 192.713 0.958037 191.007 2.66343L181.364 12.3061L203.87 47.6928L239.257 70.1984L248.899 60.5557C249.745 59.7109 250.416 58.7076 250.874 57.6033C251.332 56.4989 251.567 55.3152 251.567 54.1197C251.567 52.9243 251.332 51.7405 250.874 50.6362C250.416 49.5318 249.745 48.5286 248.899 47.6837L203.87 2.66343ZM27 166.67L67.9813 188.412L84.8923 224.563L79.98 229.475C78.9789 230.476 77.7579 231.23 76.4141 231.676L18.9038 250.825C16.5001 251.627 13.9206 251.744 11.4543 251.162C8.98802 250.58 6.73241 249.324 4.94019 247.532L3.99411 246.586C2.20282 244.794 0.945945 242.538 0.364321 240.072C-0.217303 237.606 -0.100702 235.026 0.701058 232.623L19.8863 175.13C20.3325 173.794 21.083 172.58 22.0786 171.583L27 166.67Z" fill="#FFE600"/>
<path id="Vector_2" d="M239.268 70.1804L181.375 12.288L174.944 18.7286L200.57 51.2407L232.836 76.6209L239.268 70.1804ZM226.405 83.0524L200.57 51.2407L168.512 25.1601L39.8647 153.808L64.3625 185.574L97.7479 211.7L226.405 83.0524ZM91.3165 218.131L64.3625 185.574L33.4424 160.239L27.0109 166.671L84.9032 224.563L91.3165 218.131Z" fill="#E9EF3C"/>
<path id="Vector_3" d="M232.845 76.6214L174.944 18.7291L168.513 25.1605L226.405 83.0528L232.845 76.6214ZM145.98 131.275C121.118 156.146 95.1921 170.546 88.0874 163.442C80.9828 156.337 95.3831 130.42 120.254 105.549C145.125 80.6786 171.042 66.2783 178.146 73.3829C185.251 80.4875 170.851 106.404 145.98 131.275ZM39.8651 153.808L97.7574 211.7L91.3259 218.132L33.4336 160.24L39.8651 153.808Z" fill="#321B41"/>
</g>
</svg>
