<svg preserveAspectRatio="xMidYMid meet"  width="251.567" height="251.527" viewBox="0 0 251.567 251.527" fill="none" xmlns="http://www.w3.org/2000/svg">
<g id="Group">
<path id="Vector" d="M203.87 2.66361C202.164 0.958216 199.851 0.00017955 197.438 0.00017955C195.026 0.00017955 192.713 0.958216 191.007 2.66361L181.364 12.3063L203.87 47.693L239.257 70.1986L248.899 60.5559C249.745 59.7111 250.416 58.7078 250.874 57.6035C251.332 56.4991 251.567 55.3154 251.567 54.1199C251.567 52.9244 251.332 51.7407 250.874 50.6364C250.416 49.532 249.745 48.5287 248.899 47.6839L203.87 2.66361ZM27 166.671L67.9813 188.412L84.8923 224.563L79.98 229.475C78.9789 230.477 77.7579 231.23 76.4141 231.677L18.9038 250.825C16.5001 251.627 13.9206 251.744 11.4543 251.162C8.98802 250.581 6.73241 249.324 4.94019 247.532L3.99411 246.586C2.20282 244.794 0.945945 242.539 0.364321 240.072C-0.217303 237.606 -0.100702 235.026 0.701058 232.623L19.8863 175.131C20.3325 173.794 21.083 172.58 22.0786 171.583L27 166.671Z" fill="#00D9FF"/>
<path id="Vector_2" d="M239.267 70.1805L181.375 12.2882L174.944 18.7287L200.569 51.2408L232.836 76.621L239.267 70.1805ZM226.404 83.0525L200.569 51.2408L168.512 25.1602L39.8646 153.808L64.3624 185.574L97.7478 211.7L226.404 83.0525ZM91.3163 218.132L64.3624 185.574L33.4422 160.239L27.0107 166.671L84.903 224.563L91.3163 218.132Z" fill="#3C98EF"/>
<path id="Vector_3" d="M232.845 76.6215L174.944 18.7292L168.512 25.1606L226.405 83.053L232.845 76.6215ZM145.98 131.275C121.118 156.146 95.1919 170.546 88.0873 163.442C80.9827 156.337 95.383 130.42 120.254 105.549C145.125 80.6787 171.041 66.2784 178.146 73.383C185.251 80.4877 170.85 106.405 145.98 131.275ZM39.8649 153.808L97.7572 211.701L91.3258 218.132L33.4335 160.24L39.8649 153.808Z" fill="#321B41"/>
</g>
</svg>
