<svg preserveAspectRatio="xMidYMid meet"  width="25.1711" height="113.262" viewBox="0 0 25.1711 113.262" fill="none" xmlns="http://www.w3.org/2000/svg">
<g id="Group">
<path id="Vector" fill-rule="evenodd" clip-rule="evenodd" d="M5.97268e-05 100.677C5.97268e-05 104.015 1.32594 107.216 3.68601 109.576C6.04608 111.936 9.24703 113.262 12.5847 113.262C15.9223 113.262 19.1233 111.936 21.4833 109.576C23.8434 107.216 25.1693 104.015 25.1693 100.677V24.5593C25.1693 18.8441 23.2242 13.2992 19.6541 8.83637L15.1016 3.14655L13.8431 1.57348C13.6921 1.38487 13.5005 1.23264 13.2827 1.12803C13.0649 1.02342 12.8263 0.969102 12.5847 0.969102C12.343 0.969102 12.1045 1.02342 11.8866 1.12803C11.6688 1.23264 11.4773 1.38487 11.3262 1.57348L10.0678 3.14655L5.51684 8.83637C1.94667 13.2992 0.00163085 18.8441 0.00163194 24.5593L5.97268e-05 100.677Z" fill="#F2C94C"/>
<path id="Vector_2" fill-rule="evenodd" clip-rule="evenodd" d="M0.000291922 25.3616L3.50825 28.8696C3.87345 29.2348 4.30704 29.5246 4.78424 29.7223C5.26144 29.92 5.77292 30.0218 6.28945 30.0218C6.80599 30.0218 7.31746 29.92 7.79467 29.7223C8.27187 29.5246 8.70546 29.2348 9.07066 28.8696L12.5786 25.3616L16.0866 28.8696C16.4518 29.2348 16.8854 29.5246 17.3626 29.7223C17.8398 29.92 18.3512 30.0218 18.8678 30.0218C19.3843 30.0218 19.8958 29.92 20.373 29.7223C20.8502 29.5246 21.2838 29.2348 21.649 28.8696L25.1711 25.3459V24.5593C25.1711 22.9217 25.0106 21.2968 24.6992 19.708C24.2403 19.7986 23.8186 20.0237 23.4879 20.3545L18.8678 24.9778L15.3598 21.4682C14.9946 21.1027 14.5609 20.8127 14.0836 20.6149C13.6062 20.417 13.0946 20.3152 12.5778 20.3152C12.0611 20.3152 11.5495 20.417 11.0721 20.6149C10.5948 20.8127 10.1611 21.1027 9.79584 21.4682L6.28945 24.9762L1.66933 20.3545C1.34222 20.0267 0.925894 19.8024 0.472214 19.7095C0.160745 21.2983 0.000291922 22.9217 0.000291922 24.5593V25.3616Z" fill="#F2F2F2"/>
<path id="Vector_3" fill-rule="evenodd" clip-rule="evenodd" d="M5.03839 9.43382L10.0675 3.14623L11.326 1.57315L12.5844 7.35852e-05L13.8429 1.57315L15.1014 3.14623L20.1321 9.43382H5.03839Z" fill="#333333"/>
<path id="Vector_4" d="M25.1563 88.0921H0.00284607" stroke="#F2994A" stroke-width="0.554388"/>
</g>
</svg>
