<svg preserveAspectRatio="xMidYMid meet"  width="73.0893" height="73.0893" viewBox="0 0 73.0893 73.0893" fill="none" xmlns="http://www.w3.org/2000/svg">
<g id="vaadin:eraser" clip-path="url(#clip0_0_4)">
<path id="Vector" d="M37.003 63.9532L66.2388 31.063C68.9796 27.8654 68.9796 22.8405 65.7819 19.6428L53.4481 7.30898C52.0777 5.48174 49.7937 4.56813 47.5096 4.56813H39.2871C37.003 4.56813 34.719 5.48174 32.8917 7.30898L2.28559 42.0264C-0.455256 45.2241 -0.455256 50.7058 2.7424 53.4466L15.0762 65.7804C16.4467 67.6077 18.7307 68.5213 21.0147 68.5213H73.0909V63.9532H37.003ZM31.0645 63.4964L18.7307 51.1626C16.9035 49.3353 16.9035 47.0513 18.7307 45.2241L34.2622 27.4085H29.6941L15.9898 42.4832C13.249 45.6809 13.249 50.249 16.4467 53.4466L26.9532 63.9532H21.0147C20.1011 63.9532 19.1875 63.4964 18.2739 63.0396L5.48325 50.249C4.11283 48.8785 4.11283 46.5945 5.48325 45.2241L21.4715 27.4085H29.6941L45.6824 9.13621H50.2505L34.2622 27.4085L48.4232 44.3104L32.4349 62.5828C31.9781 63.0396 31.5213 63.0396 31.0645 63.4964Z" fill="#A0E8FB"/>
</g>
<defs>
<clipPath id="clip0_0_4">
<rect width="73.0893" height="73.0893" fill="white"/>
</clipPath>
</defs>
</svg>
